<?xml version="1.0" encoding="UTF-8" standalone="no"?>
<!-- Generator: Adobe Illustrator 18.0.0, SVG Export Plug-In . SVG Version: 6.00 Build 0)  -->

<svg
   xmlns:dc="http://purl.org/dc/elements/1.1/"
   xmlns:cc="http://creativecommons.org/ns#"
   xmlns:rdf="http://www.w3.org/1999/02/22-rdf-syntax-ns#"
   xmlns:svg="http://www.w3.org/2000/svg"
   xmlns="http://www.w3.org/2000/svg"
   xmlns:sodipodi="http://sodipodi.sourceforge.net/DTD/sodipodi-0.dtd"
   xmlns:inkscape="http://www.inkscape.org/namespaces/inkscape"
   version="1.1"
   id="Layer_1"
   x="0px"
   y="0px"
   viewBox="0 0 64 64"
   enable-background="new 0 0 64 64"
   xml:space="preserve"
   sodipodi:docname="TrashCan.svg"
   inkscape:version="0.92.3 (2405546, 2018-03-11)"><metadata
   id="metadata4599"><rdf:RDF><cc:Work
       rdf:about=""><dc:format>image/svg+xml</dc:format><dc:type
         rdf:resource="http://purl.org/dc/dcmitype/StillImage" /></cc:Work></rdf:RDF></metadata><defs
   id="defs4597" /><sodipodi:namedview
   pagecolor="#ffffff"
   bordercolor="#666666"
   borderopacity="1"
   objecttolerance="10"
   gridtolerance="10"
   guidetolerance="10"
   inkscape:pageopacity="0"
   inkscape:pageshadow="2"
   inkscape:window-width="1920"
   inkscape:window-height="1057"
   id="namedview4595"
   showgrid="false"
   inkscape:zoom="3.6875"
   inkscape:cx="32"
   inkscape:cy="32"
   inkscape:window-x="1672"
   inkscape:window-y="-8"
   inkscape:window-maximized="1"
   inkscape:current-layer="Layer_1" />
<g
   id="g4592"
   style="fill:#ffffff;fill-opacity:1">
	<path
   d="M54,8H42V4c0-2.2-1.8-4-4-4H26c-2.2,0-4,1.8-4,4v4H10c-2.2,0-4,1.8-4,4v8h4.1l2.6,38.4c0.2,3.1,2.8,5.6,6,5.6h26.5   c3.1,0,5.8-2.5,6-5.6L53.9,20H58v-8C58,9.8,56.2,8,54,8z M26,4h12v4H26V4z M47.3,58.1c-0.1,1-0.9,1.9-2,1.9H18.7   c-1,0-1.9-0.8-2-1.9L14.1,20h35.7L47.3,58.1z M54,16H10v-4h44V16z"
   id="path4584"
   style="fill:#ffffff;fill-opacity:1" />
	<rect
   x="9"
   y="37"
   transform="matrix(7.669654e-02 0.9971 -0.9971 7.669654e-02 59.1978 14.0736)"
   width="26.1"
   height="4"
   id="rect4586"
   style="fill:#ffffff;fill-opacity:1" />
	<rect
   x="30"
   y="26"
   width="4"
   height="26"
   id="rect4588"
   style="fill:#ffffff;fill-opacity:1" />
	<rect
   x="40"
   y="26"
   transform="matrix(0.9971 7.665917e-02 -7.665917e-02 0.9971 3.1133 -3.1049)"
   width="4"
   height="26.1"
   id="rect4590"
   style="fill:#ffffff;fill-opacity:1" />
</g>
</svg>